<?xml version="1.0" encoding="UTF-8" standalone="no"?>
<!-- Created with Inkscape (http://www.inkscape.org/) -->

<svg
   xmlns:dc="http://purl.org/dc/elements/1.1/"
   xmlns:cc="http://creativecommons.org/ns#"
   xmlns:rdf="http://www.w3.org/1999/02/22-rdf-syntax-ns#"
   xmlns:svg="http://www.w3.org/2000/svg"
   xmlns="http://www.w3.org/2000/svg"
   xmlns:xlink="http://www.w3.org/1999/xlink"
   version="1.2"
   width="640"
   height="330"
   id="svg2">
  <defs
     id="defs4">
    <linearGradient
       id="linearGradient3924">
      <stop
         id="stop3926"
         style="stop-color:#f4fabe;stop-opacity:0.98039216"
         offset="0" />
      <stop
         id="stop3928"
         style="stop-color:#f4fa55;stop-opacity:1"
         offset="1" />
    </linearGradient>
    <linearGradient
       id="linearGradient3806">
      <stop
         id="stop3808"
         style="stop-color:#ecdad0;stop-opacity:1"
         offset="0" />
      <stop
         id="stop3810"
         style="stop-color:#a97b5f;stop-opacity:0"
         offset="1" />
    </linearGradient>
    <linearGradient
       id="linearGradient3768">
      <stop
         id="stop3770"
         style="stop-color:#ff03f7;stop-opacity:1"
         offset="0" />
      <stop
         id="stop3772"
         style="stop-color:#ff0034;stop-opacity:1"
         offset="1" />
    </linearGradient>
    <linearGradient
       id="linearGradient3760">
      <stop
         id="stop3762"
         style="stop-color:#ff00bd;stop-opacity:1"
         offset="0" />
      <stop
         id="stop3764"
         style="stop-color:#fb0b3e;stop-opacity:0"
         offset="1" />
    </linearGradient>
    <radialGradient
       cx="74.056206"
       cy="18.817972"
       r="160"
       fx="74.056206"
       fy="18.817972"
       id="radialGradient4128"
       xlink:href="#linearGradient3924"
       gradientUnits="userSpaceOnUse"
       gradientTransform="matrix(0.62500003,0,-3.0115447e-8,0.82205914,166.12908,773.96585)" />
  </defs>
  <metadata
     id="metadata7">
    <rdf:RDF>
      <cc:Work
         rdf:about="">
        <dc:format>image/svg+xml</dc:format>
        <dc:type
           rdf:resource="http://purl.org/dc/dcmitype/StillImage" />
        <dc:title></dc:title>
      </cc:Work>
    </rdf:RDF>
  </metadata>
  <g
     transform="translate(0,-722.36218)"
     id="layer1">
    <path
       d="m 463.75587,-20 a 163.75587,70 0 1 1 -327.51174,0 163.75587,70 0 1 1 327.51174,0 z"
       transform="matrix(1.3251434,0,0,1.6857143,-79.12879,917.14963)"
       id="path3904"
       style="fill:#000000;fill-opacity:1;stroke:none" />
    <path
       d="m 372.58832,771.52125 c -3.217,3.59575 -11.72283,26.31056 -11.72283,26.31056 l 30.12146,-3.33719 8.72462,-19.19922 c -3.07706,-1.40507 -27.12325,-3.77415 -27.12325,-3.77415 z"
       id="path4093"
       style="fill:#f4fa55;fill-opacity:1;stroke:none" />
    <path
       d="m 315.41421,767.43534 c -48.93334,0 -93.97796,9.09589 -129.78125,24.375 l 182.3125,-20.78125 c -16.79288,-2.35127 -34.39769,-3.59375 -52.53125,-3.59375 z m 123.875,21.96875 -305.78125,34.84375 c -18.58001,17.19712 -29.25,37.26464 -29.25,58.6875 0,21.9644 11.19552,42.51757 30.65625,60 l 0,-0.21875 379.46875,-21.03125 c 7.88586,-12.11309 12.1875,-25.15637 12.1875,-38.75 0,-38.47478 -34.39538,-72.54094 -87.28125,-93.53125 z m 46.78125,161.5625 -312.875,17.34375 c 37.52726,18.70966 87.43939,30.125 142.21875,30.125 70.12022,0 132.24951,-18.69706 170.65625,-47.46875 z"
       id="path3906"
       style="fill:url(#radialGradient4128);fill-opacity:1;stroke:none" />
    <path
       d="m 126.57858,865.23125 c 0,-2.83742 0.44531,-4.88137 1.33597,-6.13183 0.89065,-1.29846 1.89264,-1.94771 3.00596,-1.94777 0.44531,6e-5 1.39165,-0.31255 2.83898,-0.93781 1.50295,-0.62514 3.17292,-1.29846 5.00991,-2.0199 1.89263,-0.76942 4.48109,-1.46678 7.76541,-2.09202 3.33994,-0.62516 6.87472,-0.93777 10.60435,-0.93782 5.84488,5e-5 8.76734,0.96192 8.7674,2.88558 -6e-5,1.29855 -3.006,2.33256 -9.0179,3.10197 -4.84295,0.62527 -9.26839,1.49096 -13.27631,2.59703 -4.00796,1.10619 -6.65208,2.14016 -7.9324,3.10198 -0.72367,0.57716 -1.08549,1.34664 -1.08549,2.30847 0,0.0962 0.13928,1.32257 0.41752,3.67908 0.27826,2.35658 0.58446,4.80933 0.91847,7.35823 0.33398,2.54892 0.55664,3.99174 0.66798,4.32835 1.39165,-0.529 4.87075,-1.29847 10.43737,-2.30844 5.62223,-1.00994 9.491,-1.5149 11.60634,-1.51493 1.16894,3e-5 2.03177,0.26464 2.58848,0.79353 0.55662,0.52906 0.83494,1.10617 0.83497,1.73134 -3e-5,0.7695 -0.33403,1.39473 -1.00199,1.87561 -1.28034,1.05808 -5.37177,2.2604 -12.27432,3.60697 -6.90258,1.29854 -10.68787,2.11609 -11.35584,2.45275 -0.33401,0.19248 -0.50103,0.50497 -0.501,0.9378 -3e-5,3.51077 0.0558,6.39639 0.16701,8.65672 l 0.25054,5.12189 3.50695,0 c 2.61628,0 5.95622,-0.43284 10.01989,-1.29852 4.06357,-0.86566 7.43134,-1.87561 10.10336,-3.02984 1.89257,-0.91376 3.20074,-1.37064 3.92444,-1.37066 0.94627,2e-5 1.78127,0.38476 2.50498,1.15424 0.77925,0.76951 1.16894,1.51492 1.16897,2.23633 -3e-5,1.49088 -1.69786,3.00578 -5.09342,4.54475 -3.34001,1.539 -7.32013,2.76535 -11.94035,3.67911 -4.56463,0.91378 -8.71174,1.37066 -12.44134,1.37066 -4.39762,0 -7.06958,-0.69736 -8.01588,-2.09203 -0.61236,-0.91378 -1.08549,-2.95771 -1.4195,-6.13186 -0.33401,-3.17413 -0.72367,-7.74292 -1.16898,-13.70648 -0.38966,-6.01158 -0.835,-11.18154 -1.33599,-15.50992 -0.38966,-4.03978 -0.58448,-6.20396 -0.58448,-6.49256"
       id="path3933"
       style="font-size:26.4966259px;font-style:normal;font-variant:normal;font-weight:bold;font-stretch:normal;line-height:125%;letter-spacing:0px;word-spacing:0px;fill:#000000;fill-opacity:0.94117647;stroke:none;font-family:Purisa;-inkscape-font-specification:Purisa Bold" />
    <path
       d="m 212.87495,913.53665 c -3e-5,0 -0.18251,-2.45128 -0.54775,-7.35385 -0.0523,-0.39751 -0.626,-1.01585 -1.72143,-1.85504 -1.04334,-0.83917 -1.98232,-1.25876 -2.81693,-1.25876 -0.88685,0 -1.33027,0.57419 -1.33021,1.72253 -6e-5,2.60587 0.41728,5.25592 1.25195,7.95013 0.88677,2.73837 1.74751,4.68172 2.58218,5.83008 0.10425,-0.22078 0.44336,-0.97169 1.01724,-2.25254 0.57376,-1.28086 1.09543,-2.20837 1.56495,-2.78255 m -10.79819,-38.02808 c -2.0345,2e-5 -4.2515,0.37545 -6.65109,1.12626 -2.39962,0.75088 -4.74706,1.81091 -7.04229,3.18005 -2.24313,1.36922 -4.12108,3.20216 -5.63385,5.49884 -1.5128,2.29673 -2.26921,4.81426 -2.26918,7.55263 -3e-5,2.03171 0.28675,3.86465 0.86072,5.49883 0.57379,1.59003 1.53887,2.38504 2.89515,2.38504 1.5128,0 3.91239,-1.30293 7.1988,-3.90881 3.28639,-2.65002 5.52949,-4.83631 6.72932,-6.55886 0.78246,-1.32501 1.6171,-3.64379 2.50395,-6.95637 0.93895,-3.35667 1.591,-5.30003 1.95618,-5.83008 0.20879,-0.3533 0.31298,-0.70665 0.313,-1.06002 -2e-5,-0.61829 -0.28704,-0.92749 -0.86071,-0.92751 m 20.57917,15.10523 c -6e-5,0.61836 -1.38244,2.0759 -4.14713,4.37257 -2.71265,2.29671 -4.82535,3.93092 -6.33808,4.90258 0.62594,0.26501 1.22584,0.64044 1.79969,1.12626 2.19089,1.85504 3.5211,3.1359 3.99065,3.84257 0.52161,0.70668 0.78243,1.92128 0.78249,3.6438 -6e-5,0.22078 -0.0266,0.6846 -0.0783,1.39127 -6e-5,0.70668 -6e-5,1.32502 0,1.85504 -6e-5,0.83917 -0.0266,1.52377 -0.0783,2.05377 -3e-5,0.53 -0.0523,1.01585 -0.15652,1.45754 -0.10424,0.44166 -0.20878,0.77291 -0.313,0.99376 -0.10424,0.22078 -0.28704,0.59624 -0.54771,1.12626 -0.20879,0.53 -0.39129,0.99374 -0.54775,1.39128 -1.04334,2.47335 -2.11272,4.10753 -3.20816,4.90257 -1.09552,0.79499 -2.47788,1.1925 -4.14713,1.19252 -1.19985,-2e-5 -2.11272,-0.0663 -2.73867,-0.19878 -0.62603,-0.13252 -1.33026,-0.50794 -2.11269,-1.12626 -0.78252,-0.5742 -1.4346,-1.50171 -1.95621,-2.78254 -0.46952,-1.28089 -0.99116,-3.04756 -1.56495,-5.30009 -0.57385,-2.25254 -1.1216,-5.14551 -1.64321,-8.67889 l -1.3302,-8.48013 -3.75591,2.4513 c -4.43406,2.8267 -8.00737,4.24005 -10.71996,4.24005 -1.87795,0 -3.49508,-0.35332 -4.85136,-1.06002 -1.35631,-0.75084 -2.37352,-1.7446 -3.05167,-2.98128 -0.67816,-1.23668 -1.17372,-2.49546 -1.4867,-3.77631 -0.26076,-1.28084 -0.39126,-2.60588 -0.39126,-3.97507 0,-6.13923 2.63434,-11.46139 7.90304,-15.96651 5.32085,-4.5492 11.65891,-6.8238 19.01423,-6.82385 1.35628,5e-5 2.68648,0.19878 3.99064,0.59626 1.35625,0.44172 2.32131,1.03798 2.89519,1.78878 0.62594,0.75089 0.93891,1.87715 0.93897,3.37881 -6e-5,1.54587 -0.49562,4.72593 -1.48672,9.54014 -0.99118,4.81426 -1.5389,8.08265 -1.64321,9.80515 -2e-5,0.66252 0.0523,1.17044 0.15652,1.52379 0.46946,-0.22078 1.69533,-1.03792 3.67764,-2.4513 2.03441,-1.41335 4.06885,-2.6721 6.10335,-3.77631 2.0344,-1.10416 3.72976,-1.65626 5.0861,-1.65626 0.57377,0 1.04326,0.15452 1.40847,0.46374 0.36509,0.26504 0.54768,0.59628 0.54774,0.99377"
       id="path3935"
       style="font-size:26.4966259px;font-style:normal;font-variant:normal;font-weight:bold;font-stretch:normal;line-height:125%;letter-spacing:0px;word-spacing:0px;fill:#000000;fill-opacity:0.94117647;stroke:none;font-family:Purisa;-inkscape-font-specification:Purisa Bold" />
    <path
       d="m 230.39023,874.91231 c 0.10424,-0.83915 0.41733,-1.5679 0.93897,-2.18629 0.57382,-0.61829 1.2259,-0.92746 1.95621,-0.92751 0.52164,5e-5 1.01721,0.13252 1.48672,0.39751 1.3041,0.79504 2.217,1.98756 2.73867,3.57756 0.52164,1.59005 0.83461,3.24631 0.93898,4.96884 0.15651,1.67836 0.44338,2.80465 0.86072,3.37878 0.36515,0.5742 0.88679,1.9434 1.56495,4.10756 0.67815,2.12005 1.40846,4.52717 2.19095,7.22138 0.78246,2.69421 1.35628,4.59341 1.72143,5.69759 1.61711,-3.40089 2.84301,-6.20551 3.67768,-8.4139 1.66925,-4.24003 3.65154,-6.36006 5.94682,-6.36009 1.40844,3e-5 3.39072,1.03795 5.94683,3.1138 2.55608,2.07587 4.30359,3.90883 5.24262,5.49883 0.83459,1.50169 1.85182,2.80463 3.05164,3.90881 0.46946,-1.10418 1.66926,-5.45465 3.59942,-13.05144 1.98223,-7.64094 3.5211,-12.01349 4.61662,-13.11772 0.57376,-0.52998 1.22584,-0.79496 1.95621,-0.79501 0.7824,5e-5 1.51274,0.26503 2.19092,0.79501 0.6781,0.48589 1.01718,1.06005 1.01724,1.72255 -6e-5,0.35335 -0.15652,0.90545 -0.46949,1.65626 -0.31306,0.7067 -0.78255,2.05382 -1.40846,4.04133 -0.57388,1.98753 -1.17378,4.41675 -1.7997,7.28759 -0.8347,3.88675 -1.98234,8.01639 -3.44293,12.38894 -1.46064,4.32842 -2.53003,6.75762 -3.20815,7.28762 -0.46952,0.3975 -1.19983,0.59626 -2.19093,0.59626 -1.30419,0 -2.55613,-0.6846 -3.7559,-2.05377 -1.19983,-1.3692 -3.62552,-4.77008 -7.27706,-10.20266 -0.626,-0.92751 -1.64324,-1.85501 -3.05164,-2.78255 -0.26076,0.30917 -0.62604,0.92754 -1.09549,1.85502 -0.41734,0.88337 -1.17375,2.4734 -2.26919,4.77008 -1.09549,2.25255 -2.34746,4.68174 -3.7559,7.28762 -1.19982,2.42919 -2.66044,3.64379 -4.38187,3.64379 -0.93898,0 -1.72147,-0.30917 -2.34744,-0.92751 -0.78249,-0.79501 -1.64321,-2.62795 -2.58219,-5.49883 -0.93897,-2.91504 -1.90402,-6.24967 -2.89515,-10.00391 -0.99116,-3.75421 -1.72147,-6.27174 -2.19095,-7.5526 -1.04331,-3.09169 -1.56495,-5.05715 -1.56495,-5.89634 0,-0.83917 -0.33908,-1.83294 -1.01724,-2.9813 -0.62597,-1.14832 -0.93897,-1.96543 -0.93897,-2.4513"
       id="path3937"
       style="font-size:26.4966259px;font-style:normal;font-variant:normal;font-weight:bold;font-stretch:normal;line-height:125%;letter-spacing:0px;word-spacing:0px;fill:#000000;fill-opacity:0.94117647;stroke:none;font-family:Purisa;-inkscape-font-specification:Purisa Bold" />
    <path
       d="m 294.55714,870.67225 c 0.8868,-0.52997 1.74752,-0.79499 2.58219,-0.79501 0.83461,2e-5 1.53884,0.28711 2.11269,0.86125 0.83461,1.32506 1.51277,5.16761 2.03444,11.52769 0.57379,6.36011 0.86072,12.30061 0.86072,17.82152 0,3.97507 -0.15652,6.22759 -0.46949,6.75762 -1.04331,0.70667 -2.16488,1.06 -3.36464,1.06 -1.8258,0 -2.94737,-0.46374 -3.36468,-1.39127 -0.26076,-0.70668 -0.67815,-5.30006 -1.25194,-13.78022 -0.52167,-8.52427 -0.78249,-14.22186 -0.78249,-17.09277 0,-2.69416 0.54771,-4.35044 1.6432,-4.96881 m -0.86071,-15.50274 c 0.10424,-0.83912 0.52164,-1.52371 1.25194,-2.05379 0.78246,-0.52995 1.53888,-0.79496 2.26919,-0.79501 0.7303,5e-5 1.66928,0.28714 2.81692,0.86127 1.14762,0.57423 1.72144,1.34714 1.72147,2.31878 -3e-5,1.06008 -0.313,2.00966 -0.93898,2.84881 -0.626,0.83922 -1.46064,1.2588 -2.50392,1.25875 -1.09549,5e-5 -2.1388,-0.41953 -3.12993,-1.25875 -0.99116,-0.8833 -1.48672,-1.94333 -1.48669,-3.18006"
       id="path3939"
       style="font-size:26.4966259px;font-style:normal;font-variant:normal;font-weight:bold;font-stretch:normal;line-height:125%;letter-spacing:0px;word-spacing:0px;fill:#000000;fill-opacity:0.94117647;stroke:none;font-family:Purisa;-inkscape-font-specification:Purisa Bold" />
    <path
       d="m 313.62884,880.67616 c -3e-5,-0.83915 0.73031,-1.78876 2.19092,-2.84881 1.46062,-1.05998 2.19093,-1.87707 2.19096,-2.45128 -3e-5,-0.97166 0.36515,-2.12 1.09546,-3.44506 0.73031,-1.32497 1.87795,-1.98749 3.4429,-1.98751 1.04331,2e-5 1.87795,0.35337 2.50392,1.06 0.67816,0.66254 1.14765,0.99382 1.40847,0.99377 0.46948,5e-5 2.50392,-0.33123 6.10334,-0.99377 3.59939,-0.70663 6.83362,-1.05998 9.70273,-1.06 2.39956,2e-5 5.03389,0.24303 7.90303,0.72875 6.05113,1.10421 9.0767,4.12967 9.07676,9.0764 -6e-5,3.75423 -1.64327,8.43598 -4.92963,14.0452 -2.24313,3.88673 -5.11221,6.89011 -8.60726,9.01014 -3.49509,2.12003 -7.25099,3.18006 -11.26768,3.18006 -1.04334,0 -1.90406,-0.0443 -2.58218,-0.13252 l -2.34744,-0.26502 0.62597,2.25255 c 2.03444,7.24343 3.05164,11.94726 3.05167,14.11147 -3e-5,1.89917 -1.17372,2.84875 -3.52116,2.84878 -1.51279,-3e-5 -2.63433,-0.37543 -3.36464,-1.12626 -0.939,-1.01587 -2.03447,-4.10759 -3.28641,-9.27515 -1.1998,-5.12341 -2.24311,-11.74851 -3.1299,-19.87532 -0.313,-2.82668 -0.57385,-5.01296 -0.78249,-6.55883 -0.15652,-1.59001 -0.33908,-2.76045 -0.54775,-3.5113 -0.20878,-0.79499 -0.39123,-1.28084 -0.54771,-1.45754 -0.15652,-0.17677 -0.39126,-0.26499 -0.70424,-0.26501 -2.45177,2e-5 -3.67767,-0.68455 -3.67764,-2.05377 m 35.91576,-3.84257 c -0.62604,-0.26497 -2.16491,-0.39746 -4.61662,-0.39751 -5.06006,5e-5 -9.57235,0.48589 -13.53689,1.45753 l -4.92962,1.25878 0.15651,3.6438 c 0.15652,3.35675 0.46946,6.95637 0.93898,10.79892 0.52161,3.84257 0.9911,5.76384 1.40846,5.76384 1.04328,0 2.13874,0.2871 3.28639,0.86125 1.14761,0.53003 1.98225,0.79504 2.50395,0.79502 1.98223,2e-5 4.32967,-1.08208 7.04229,-3.24629 2.76471,-2.16419 5.13823,-4.79216 7.12054,-7.88388 1.98226,-3.13587 2.97339,-5.89632 2.97345,-8.28138 -6e-5,-0.88333 -0.18251,-1.70042 -0.54775,-2.45128 -0.36521,-0.79499 -0.73037,-1.34709 -1.09546,-1.65628 -0.31303,-0.3533 -0.54778,-0.57414 -0.70423,-0.66252"
       id="path3941"
       style="font-size:26.4966259px;font-style:normal;font-variant:normal;font-weight:bold;font-stretch:normal;line-height:125%;letter-spacing:0px;word-spacing:0px;fill:#000000;fill-opacity:0.94117647;stroke:none;font-family:Purisa;-inkscape-font-specification:Purisa Bold" />
    <path
       d="m 373.96036,907.37532 c 0.10424,-1.94335 1.53887,-4.12964 4.30361,-6.55886 2.76475,-2.4292 4.74704,-3.6438 5.94686,-3.6438 0.31297,0 0.49553,-0.0225 0.54772,-0.0663 0.10424,-0.0883 0.1825,-0.24278 0.23477,-0.46374 0.0523,-0.22078 0.15652,-0.44166 0.313,-0.66252 0.57379,-0.61834 1.40844,-0.92751 2.50393,-0.92751 0.7303,0 1.38235,0.17678 1.95621,0.53 0.57379,0.3092 0.88679,0.72878 0.93897,1.25878 0.26076,0.22079 0.67813,0.33125 1.25195,0.33125 1.66928,0 3.05164,0.64044 4.14716,1.92128 1.09543,1.28085 1.64315,2.78254 1.64318,4.50506 -3e-5,2.65006 -1.46065,5.27801 -4.38188,7.88388 -2.86911,2.65003 -6.15552,3.97504 -9.85921,3.97507 -1.66931,-3e-5 -3.18211,-0.3092 -4.53839,-0.92753 -1.30413,-0.61834 -2.29526,-1.39128 -2.97342,-2.31879 -0.67815,-0.88335 -1.19979,-1.74459 -1.56495,-2.58379 -0.313,-0.83917 -0.46948,-1.59 -0.46948,-2.25252 m 11.03293,-0.59626 0.0783,0 c 0.73031,0 1.56495,-0.39751 2.50392,-1.19252 -1.56498,0.13252 -2.42569,0.53 -2.58218,1.19252"
       id="path3943"
       style="font-size:26.4966259px;font-style:normal;font-variant:normal;font-weight:bold;font-stretch:normal;line-height:125%;letter-spacing:0px;word-spacing:0px;fill:#000000;fill-opacity:0.94117647;stroke:none;font-family:Purisa;-inkscape-font-specification:Purisa Bold" />
    <path
       d="m 442.89061,898.89518 c 0.83461,-0.3975 1.69533,-0.59626 2.58218,-0.59626 1.09543,0 2.03438,0.26502 2.81693,0.79502 0.83458,0.53002 1.25191,1.21462 1.25194,2.05379 -3e-5,1.28086 -1.12159,2.40712 -3.36464,3.37878 -2.19098,0.97169 -6.0773,2.14213 -11.65894,3.5113 -3.44293,1.06003 -6.39026,1.59003 -8.84201,1.59003 -0.313,0 -0.86075,-0.0663 -1.64321,-0.19878 -0.78249,-0.0883 -1.74754,-0.26499 -2.89515,-0.53 -1.14767,-0.22078 -2.1388,-0.61834 -2.97344,-1.19252 -0.78249,-0.57418 -1.17372,-1.25875 -1.17372,-2.05377 0,-1.01584 0.313,-1.70044 0.93897,-2.05379 0.62598,-0.35333 1.66929,-0.53 3.12993,-0.53 2.19092,0 4.79918,-0.46377 7.82478,-1.39127 l 4.0689,-1.25878 -0.70423,-11.32892 c -0.46952,-7.95009 -0.70426,-14.26601 -0.70423,-18.94781 l 0,-5.76382 -1.40846,0.19878 c -4.22542,0.61839 -7.30317,0.92755 -9.23324,0.9275 -3.75594,5e-5 -5.63386,-0.70662 -5.63386,-2.12002 0,-0.57414 0.31297,-1.08206 0.93898,-1.52377 0.67812,-0.4858 1.66928,-0.92748 2.97341,-1.32504 1.35628,-0.39746 2.68649,-0.75078 3.99065,-1.06 1.3041,-0.30912 2.9473,-0.68455 4.92962,-1.12626 1.98225,-0.44164 3.65154,-0.83915 5.00785,-1.19252 0.73028,-0.26497 3.2342,-0.39746 7.5118,-0.39751 4.38182,5e-5 7.01619,0.28714 7.90301,0.86125 0.9911,0.70672 1.48669,1.568 1.48672,2.58379 -3e-5,1.06008 -0.57385,1.83299 -1.72143,2.31878 -1.09553,0.4859 -2.97348,0.83922 -5.63386,1.06003 l -1.48672,0.13252 0.15652,10.40141 c 0.26076,13.95692 0.78243,22.2162 1.56495,24.77789"
       id="path3945"
       style="font-size:26.4966259px;font-style:normal;font-variant:normal;font-weight:bold;font-stretch:normal;line-height:125%;letter-spacing:0px;word-spacing:0px;fill:#000000;fill-opacity:0.94117647;stroke:none;font-family:Purisa;-inkscape-font-specification:Purisa Bold" />
    <path
       d="m 478.57652,872.19602 c -1.66931,0.0883 -3.96457,0.35338 -6.8858,0.79501 -2.86911,0.39754 -4.79921,0.59629 -5.79034,0.59626 -2.2431,3e-5 -3.36467,-0.7508 -3.36467,-2.25254 0,-1.19247 0.99113,-2.0979 2.97341,-2.71629 1.98229,-0.61829 4.32973,-1.10413 7.04232,-1.45751 2.76474,-0.3533 4.53836,-0.70665 5.32085,-1.06003 0.41731,-0.3533 0.62597,-1.30288 0.62597,-2.84878 0,-1.58997 -0.23477,-3.66585 -0.70423,-6.22761 -0.46949,-2.56164 -0.70423,-4.88042 -0.70423,-6.95635 0,-1.4133 0.44341,-2.45122 1.33024,-3.11379 0.88679,-0.70663 1.85184,-1.05998 2.89515,-1.06003 1.14761,5e-5 1.95618,0.39756 2.4257,1.19252 0.26076,0.66257 0.7042,3.55554 1.3302,8.67889 0.62595,5.07928 1.01721,8.01642 1.17372,8.81139 0.41731,-0.0443 1.79967,-0.22078 4.14714,-0.53 2.39956,-0.3533 4.22536,-0.52998 5.47733,-0.53003 1.77359,5e-5 3.02557,0.24304 3.75591,0.72878 0.73027,0.48587 1.09543,1.01587 1.09549,1.59 -6e-5,0.83922 -0.67822,1.54592 -2.03447,2.12005 -1.35631,0.57421 -3.80808,1.23673 -7.35529,1.98754 l -4.46013,0.59623 0.626,10.07017 c 0.41728,6.22761 1.14758,12.05769 2.19092,17.49027 1.04328,5.4326 1.56492,8.56847 1.56495,9.40764 -3e-5,1.94338 -1.19982,2.91504 -3.59938,2.91504 -1.4085,0 -2.45181,-0.22078 -3.12993,-0.66249 -1.56498,-1.19252 -2.34744,-3.68798 -2.34741,-7.48637 -3e-5,-1.54585 -0.10425,-3.11379 -0.313,-4.70382 -0.20879,-1.63418 -0.57385,-4.15172 -1.09547,-7.55263 -0.46951,-3.44502 -0.91292,-7.0005 -1.33023,-10.6664 -0.52167,-4.59338 -0.80857,-6.97842 -0.86072,-7.15512"
       id="path3947"
       style="font-size:26.4966259px;font-style:normal;font-variant:normal;font-weight:bold;font-stretch:normal;line-height:125%;letter-spacing:0px;word-spacing:0px;fill:#000000;fill-opacity:0.94117647;stroke:none;font-family:Purisa;-inkscape-font-specification:Purisa Bold" />
    <path
       d="m 193.41096,940.19598 -13.55678,26.42698 29.71475,-1.52943 13.58739,-26.42856 -29.74536,1.53101 z"
       id="path4059"
       style="fill:#f4fa55;fill-opacity:1;stroke:none" />
    <path
       d="m 254.49299,936.57559 -13.55678,26.42698 29.71476,-1.52943 13.58739,-26.42855 -29.74537,1.531 z"
       id="path4061"
       style="fill:#f4fa55;fill-opacity:1;stroke:none" />
    <path
       d="m 315.57503,933.43167 -13.55678,26.42698 29.71475,-1.52943 13.58739,-26.42855 -29.74536,1.531 z"
       id="path4065"
       style="fill:#f4fa55;fill-opacity:1;stroke:none" />
    <path
       d="m 376.65707,930.28776 -13.55678,26.42698 29.71475,-1.52944 13.58739,-26.42855 -29.74536,1.53101 z"
       id="path4067"
       style="fill:#f4fa55;fill-opacity:1;stroke:none" />
    <path
       d="m 437.7391,927.14384 -13.55679,26.42698 29.71477,-1.52943 13.58739,-26.42856 -29.74537,1.53101 z"
       id="path4069"
       style="fill:#f4fa55;fill-opacity:1;stroke:none" />
    <path
       d="m 190.63912,791.2333 -13.60967,28.06056 29.83069,-3.40063 13.6404,-28.06406 -29.86142,3.40413 z"
       id="path4087"
       style="fill:#f4fa55;fill-opacity:1;stroke:none" />
    <path
       d="m 251.95947,783.75201 -13.60967,28.06056 29.83068,-3.40063 13.6404,-28.06406 -29.86141,3.40413 z"
       id="path4089"
       style="fill:#f4fa55;fill-opacity:1;stroke:none" />
    <path
       d="m 313.27982,776.76163 -13.60967,28.06056 29.83068,-3.40063 13.6404,-28.06406 -29.86141,3.40413 z"
       id="path4091"
       style="fill:#f4fa55;fill-opacity:1;stroke:none" />
    <path
       d="m 424.29551,782.65587 -1.98468,8.18557 c 0,0 19.10338,-2.4061 16.58069,-2.15063 l -5.97731,-2.88047 z"
       id="path4095"
       style="fill:#f4fa55;fill-opacity:1;stroke:none" />
  </g>
</svg>
